<svg width="1720" height="1496" viewBox="0 0 1720 1496" fill="none" xmlns="http://www.w3.org/2000/svg">
<rect width="1720" height="1496" fill="#E5E5E5"/>
<g id="ballon1" clip-path="url(#clip0_1669_162202)">
<path id="Vector" d="M722.703 589C720.423 597.008 723.861 606.475 730.535 610.688C733.336 612.454 736.56 613.343 739.275 615.259C745.173 619.416 747.5 627.374 749.416 634.699C751.615 643.121 753.821 652.024 751.806 660.495C750.521 665.898 747.598 670.676 745.937 675.96C744.548 680.386 744.064 685.086 744.519 689.734C744.762 692.201 745.329 694.743 746.892 696.584C749.15 699.213 752.785 699.608 756.049 700.24C762.951 701.652 769.445 704.813 774.999 709.465C780.553 714.116 785.008 720.126 788 727" stroke="#535461" stroke-width="2" stroke-miterlimit="10"/>
<path id="Vector_2" d="M732 596H716L718.804 585H728.399L732 596Z" fill="#F55F44"/>
<path id="Vector_3" d="M787.994 490.603C787.994 528.494 759.115 584 723.497 584C687.879 584 659 528.488 659 490.603C659 472.409 665.796 454.959 677.892 442.093C689.988 429.228 706.394 422 723.5 422C740.606 422 757.012 429.228 769.108 442.093C781.204 454.959 788 472.409 788 490.603H787.994Z" fill="#F55F44"/>
<path id="Vector_4" d="M727.883 585H719.117L714 582H733L727.883 585Z" fill="#535461"/>
<path id="Vector_5" opacity="0.1" d="M701 438C701 438 673.001 453.333 669 484Z" fill="white"/>
</g>
<g id="ballon2">
<path id="Vector_6" d="M1155.66 415C1150.19 421.57 1144.51 428.589 1144.03 436.633C1143.32 448.995 1154.84 459.106 1159.99 470.672C1162.22 475.766 1163.23 481.194 1162.96 486.631C1162.68 492.068 1161.14 497.402 1158.41 502.314C1155.9 506.768 1152.31 511.193 1152.78 516.126C1153.04 519.135 1154.8 521.874 1156.21 524.643C1159.68 531.58 1161.19 539.121 1160.63 546.655C1160.06 554.188 1157.44 561.501 1152.96 568" stroke="#535461" stroke-width="2" stroke-miterlimit="10"/>
<path id="Vector_7" d="M1162 418H1147L1149.63 411H1158.62L1162 418Z" fill="#4D8AF0"/>
<path id="Vector_8" d="M1214.99 337.358C1214.99 366.829 1187.68 410 1154 410C1120.31 410 1093 366.824 1093 337.358C1093 323.207 1099.43 309.635 1110.87 299.628C1122.31 289.622 1137.82 284 1154 284C1170.18 284 1185.69 289.622 1197.13 299.628C1208.57 309.635 1215 323.207 1215 337.358H1214.99Z" fill="#6C63FF"/>
<path id="Vector_9" d="M1157.88 411H1149.12L1144 409H1163L1157.88 411Z" fill="#535461"/>
<path id="Vector_10" opacity="0.1" d="M1132 296C1132 296 1106.63 308.333 1103 333Z" fill="white"/>
</g>
<g id="ballon3">
<path id="Vector_11" d="M721.957 960L724.708 982.316C725.071 985.281 725.381 988.514 723.783 991.054C722.267 993.448 719.423 994.59 717.211 996.361C709.948 1002.19 710.609 1013.32 713.114 1022.25C715.619 1031.19 719.224 1040.79 715.742 1049.39C714.302 1052.93 711.762 1055.92 709.889 1059.25C706.676 1064.95 705.403 1071.53 706.26 1078" stroke="#535461" stroke-width="2" stroke-miterlimit="10"/>
<path id="Vector_12" d="M732 964H716L718.804 955H728.399L732 964Z" fill="#3AD29F"/>
<path id="Vector_13" d="M792 865.792C792 901.578 761.33 954 723.503 954C685.676 954 655 901.578 655 865.792C655 848.608 662.217 832.128 675.063 819.977C687.909 807.826 705.333 801 723.5 801C741.667 801 759.091 807.826 771.937 819.977C784.783 832.128 792 848.608 792 865.792Z" fill="#3AD29F"/>
<path id="Vector_14" d="M728.344 955H718.656L713 953H734L728.344 955Z" fill="#535461"/>
<path id="Vector_15" opacity="0.1" d="M740 817C740 817 711.126 829.667 707 855Z" fill="white"/>
</g>
<defs>
<clipPath id="clip0_1669_162202">
<rect width="839.2" height="727.08" fill="white"/>
</clipPath>
</defs>
</svg>
