<svg width="1720" height="1994" viewBox="0 0 1720 1994" fill="none" xmlns="http://www.w3.org/2000/svg">
<rect width="1720" height="1994" fill="#E5E5E5"/>
<g id="ballon1" clip-path="url(#clip0_1669_162202)">
<path id="Vector" d="M634.205 964C627.053 985.238 637.836 1010.35 658.768 1021.52C667.554 1026.2 677.666 1028.56 686.18 1033.64C704.679 1044.67 711.977 1065.77 717.986 1085.2C724.884 1107.54 731.801 1131.15 725.483 1153.62C721.453 1167.95 712.286 1180.62 707.075 1194.63C702.718 1206.37 701.2 1218.84 702.628 1231.16C703.39 1237.71 705.169 1244.45 710.071 1249.33C717.151 1256.31 728.551 1257.35 738.79 1259.03C760.437 1262.77 780.805 1271.16 798.224 1283.49C815.643 1295.83 829.617 1311.77 839 1330" stroke="#535461" stroke-width="2" stroke-miterlimit="10"/>
<path id="Vector_2" d="M663 981H613L621.761 953H651.746L663 981Z" fill="#F55F44"/>
<path id="Vector_3" d="M838.982 701.096C838.982 801.669 748.316 949 636.491 949C524.666 949 434 801.653 434 701.096C434 652.801 455.335 606.484 493.311 572.335C531.287 538.185 582.794 519 636.5 519C690.206 519 741.713 538.185 779.689 572.335C817.665 606.484 839 652.801 839 701.096H838.982Z" fill="#F55F44"/>
<path id="Vector_4" d="M650.11 953H622.89L607 945H666L650.11 953Z" fill="#535461"/>
<path id="Vector_5" opacity="0.1" d="M566 562C566 562 478.502 602.333 466 683Z" fill="white"/>
</g>
<path id="Vector_6" d="M1306.11 481C1286.83 505.09 1266.8 530.828 1265.11 560.32C1262.59 605.649 1303.23 642.723 1321.38 685.129C1329.25 703.808 1332.81 723.712 1331.85 743.648C1330.89 763.583 1325.43 783.141 1315.8 801.151C1306.95 817.483 1294.32 833.709 1295.95 851.794C1296.88 862.829 1303.07 872.873 1308.06 883.023C1320.29 908.46 1325.63 936.111 1323.64 963.733C1321.65 991.355 1312.38 1018.17 1296.6 1042" stroke="#535461" stroke-width="2" stroke-miterlimit="10"/>
<path id="Vector_7" d="M1328 492H1275L1284.29 466H1316.07L1328 492Z" fill="#4D8AF0"/>
<path id="Vector_8" d="M1513.98 195.647C1513.98 303.705 1418.17 462 1299.99 462C1181.81 462 1086 303.688 1086 195.647C1086 143.758 1108.55 93.9945 1148.68 57.3036C1188.81 20.6127 1243.24 0 1300 0C1356.76 0 1411.19 20.6127 1451.32 57.3036C1491.45 93.9945 1514 143.758 1514 195.647H1513.98Z" fill="#6C63FF"/>
<path id="Vector_9" d="M1313.96 466H1283.04L1265 459H1332L1313.96 466Z" fill="#535461"/>
<path id="Vector_10" opacity="0.1" d="M1223 44C1223 44 1133.75 89.3333 1121 180Z" fill="white"/>
<g id="ballon3" clip-path="url(#clip1_1669_162202)">
<path id="Vector_11" d="M590.032 1762L598.14 1827.44C599.209 1836.13 600.123 1845.61 595.414 1853.06C590.946 1860.08 582.563 1863.42 576.042 1868.62C554.635 1885.7 556.584 1918.34 563.967 1944.54C571.35 1970.74 581.976 1998.89 571.713 2024.1C567.469 2034.5 559.983 2043.26 554.463 2053.03C544.992 2069.73 541.24 2089.02 543.768 2108" stroke="#535461" stroke-width="2" stroke-miterlimit="10"/>
<path id="Vector_12" d="M618 1774H572L580.06 1746H607.647L618 1774Z" fill="#3AD29F"/>
<path id="Vector_13" d="M793 1484.14C793 1589.16 703.901 1743 594.009 1743C484.117 1743 395 1589.16 395 1484.14C395 1433.71 415.966 1385.35 453.286 1349.69C490.605 1314.03 541.222 1294 594 1294C646.778 1294 697.394 1314.03 734.714 1349.69C772.034 1385.35 793 1433.71 793 1484.14Z" fill="#3AD29F"/>
<path id="Vector_14" d="M608.302 1746H579.698L563 1741H625L608.302 1746Z" fill="#535461"/>
<path id="Vector_15" opacity="0.1" d="M642 1341C642 1341 558.002 1378 546 1452Z" fill="white"/>
</g>
<defs>
<clipPath id="clip0_1669_162202">
<rect width="839.2" height="727.08" fill="white" transform="translate(0 498)"/>
</clipPath>
<clipPath id="clip1_1669_162202">
<rect width="839.2" height="727.08" fill="white" transform="translate(0 1266)"/>
</clipPath>
</defs>
</svg>
